<?xml version="1.0" encoding="utf-8"?>
<!-- Generator: Adobe Illustrator 19.0.0, SVG Export Plug-In . SVG Version: 6.00 Build 0)  -->
<svg version="1.1" id="layer" xmlns="http://www.w3.org/2000/svg" xmlns:xlink="http://www.w3.org/1999/xlink" x="0px" y="0px"
	 viewBox="-153 -46 652 652" style="enable-background:new -153 -46 652 652;" xml:space="preserve">
<style type="text/css">
	.st0{fill-rule:evenodd;clip-rule:evenodd;fill:#076AB3;}
	.st1{fill-rule:evenodd;clip-rule:evenodd;fill:#EF7D1B;}
</style>
<g>
	<path class="st0" d="M-29.7,237.1c-3.5-3.9-7.2-6.8-11.2-8.7c-3.9-2-8.2-2.9-13-2.9c-7.4,0-13.6,2.3-18.8,6.7
		c-5.1,4.5-8.3,10.5-9.4,18.1c-1.1,7.3,0.1,13.2,3.7,17.5c3.5,4.4,8.9,6.6,16.1,6.6c4.3,0,8.8-1,13.6-2.8c4.7-1.9,10-4.8,15.9-8.8
		l-8.6,46.8c-5.2,2-10.3,3.5-15.3,4.5c-5,1-9.9,1.5-14.8,1.5c-6.1,0-11.9-0.7-17.2-2.1c-5.5-1.4-10.2-3.2-14.3-5.8
		c-10.1-6.3-17.2-14.3-21.3-24.1c-4.1-9.7-5.3-20.8-3.3-33.4c1.5-9.3,4.3-18,8.8-25.9c4.4-8,10.1-14.9,17.2-20.9
		c7.1-6.2,15-10.8,23.6-13.9c8.7-3.1,17.7-4.7,27.2-4.7c5,0,9.9,0.5,14.6,1.6c4.8,1,9.3,2.6,13.6,4.7L-29.7,237.1z M32.1,267h18.6
		l-1.6-14c-0.8-7.2-1.3-12.7-1.4-16.6c-0.1-3.8,0.1-7.5,0.4-10.8h-0.7c-0.8,3.3-1.8,7-2.9,10.8c-1.4,3.9-3.4,9.4-6.4,16.6L32.1,267z
		 M-34.3,312.3l63.5-124.5h49.9l24.4,124.5H55.3l-1.6-15.6H20l-6.3,15.6H-34.3z M115,312.3l19.2-124.5h45.5l-19.1,124.5H115z"/>
	<path class="st0" d="M391.2,267h18.6l-1.7-14c-0.7-7.2-1.2-12.7-1.3-16.6c-0.1-3.8,0.1-7.5,0.4-10.8h-0.7c-0.7,3.3-1.8,7-2.9,10.8
		c-1.3,3.9-3.4,9.4-6.4,16.6L391.2,267z M324.9,312.3l63.5-124.5h49.9l24.4,124.5h-48.1l-1.6-15.6h-33.8l-6.3,15.6H324.9z"/>
	<path class="st0" d="M-102.9,341.5c-1.6-1.7-3.3-3-5.1-3.8c-1.8-0.8-3.8-1.2-6-1.2c-1.7,0-3.4,0.3-5.1,1.1c-1.7,0.7-3,1.7-4.3,2.9
		c-1.3,1.3-2.2,2.8-2.8,4.3c-0.6,1.7-1,3.4-1,5.4c0,1.6,0.2,3,0.6,4.2c0.4,1.4,1,2.6,1.7,3.6c1.4,1.9,3,3.3,4.9,4.3
		c2,1,4,1.6,6.3,1.6c2.2,0,4.1-0.5,5.9-1.4c1.9-0.8,3.4-2.2,5-3.8v5.2c-1.7,1.2-3.4,2.1-5.3,2.7c-2,0.6-3.9,1-5.9,1
		c-1.8,0-3.4-0.3-5.1-0.8c-1.7-0.6-3.2-1.3-4.7-2.3c-2.4-1.8-4.2-3.7-5.5-6.2c-1.3-2.5-1.9-5.2-1.9-8.1c0-2.6,0.4-4.9,1.3-7
		c0.8-2.2,2.1-4,3.8-5.7c1.8-1.7,3.6-2.8,5.6-3.6c2.1-0.9,4.3-1.3,6.8-1.3c1.9,0,3.7,0.3,5.5,0.9c1.9,0.6,3.6,1.5,5.4,2.8V341.5z
		 M-84.9,341l-5.3,12.2h10.6L-84.9,341z M-84.9,332.2l15.1,34.5h-4.3l-4.3-10.2h-12.9l-4.3,10.2h-4.3L-84.9,332.2z M-65.6,333.5h3.9
		v33.2h-3.9V333.5z M-57,366.7l10.2-17.7l-9.5-15.5h4.8l7.1,12.7l6.8-12.7h4.5l-9.3,15.9l10.5,17.3h-4.6l-8.1-14.3l-7.8,14.3H-57z
		 M-16.9,341l-5.2,12.2h10.5L-16.9,341z M-16.9,332.2l15.1,34.5h-4.3l-4.2-10.2h-13l-4.3,10.2H-32L-16.9,332.2z"/>
	<path class="st0" d="M14.8,366.7v-33.2h17.4v3.6H18.7v9.5h13.5v3.6H18.7V363h13.5v3.7H14.8z M63.8,341.5c-1.6-1.7-3.3-3-5.1-3.8
		c-1.8-0.8-3.7-1.2-5.9-1.2c-1.8,0-3.5,0.3-5.2,1.1c-1.7,0.7-3,1.7-4.3,2.9c-1.3,1.3-2.2,2.8-2.9,4.3c-0.6,1.7-0.9,3.4-0.9,5.4
		c0,1.6,0.2,3,0.5,4.2c0.4,1.4,1,2.6,1.8,3.6c1.3,1.9,2.9,3.3,4.8,4.3c2,1,4.1,1.6,6.3,1.6c2.2,0,4.1-0.5,5.9-1.4
		c1.9-0.8,3.5-2.2,5-3.8v5.2c-1.7,1.2-3.4,2.1-5.3,2.7c-1.9,0.6-3.8,1-5.9,1c-1.8,0-3.4-0.3-5.1-0.8c-1.7-0.6-3.2-1.3-4.6-2.3
		c-2.5-1.8-4.3-3.7-5.6-6.2c-1.3-2.5-1.9-5.2-1.9-8.1c0-2.6,0.4-4.9,1.3-7c0.8-2.2,2.2-4,3.8-5.7c1.8-1.7,3.6-2.8,5.7-3.6
		c2.1-0.9,4.2-1.3,6.7-1.3c2,0,3.7,0.3,5.6,0.9c1.8,0.6,3.5,1.5,5.3,2.8V341.5z M84.7,363.8c1.8,0,3.5-0.4,5.1-1.1
		c1.7-0.7,3.1-1.7,4.5-2.9c1.3-1.3,2.3-2.8,2.9-4.4c0.7-1.7,1-3.4,1-5.2c0-1.9-0.3-3.6-1-5.3c-0.7-1.7-1.7-3.1-2.9-4.4
		c-1.4-1.4-2.8-2.4-4.4-2.9c-1.7-0.8-3.4-1.1-5.2-1.1c-1.9,0-3.6,0.3-5.3,1.1c-1.6,0.6-3,1.6-4.3,2.9c-1.3,1.3-2.3,2.8-3,4.4
		c-0.7,1.7-1.1,3.4-1.1,5.3c0,1.8,0.4,3.5,1.1,5.2c0.7,1.6,1.7,3.1,3,4.4c1.3,1.3,2.8,2.3,4.4,2.9C81.2,363.4,82.8,363.8,84.7,363.8
		 M102.4,350.2c0,2.4-0.4,4.5-1.3,6.7c-0.9,2.1-2.2,3.9-3.8,5.6c-1.7,1.6-3.6,2.9-5.8,3.7c-2.2,0.9-4.5,1.4-6.8,1.4
		c-2.4,0-4.6-0.5-6.8-1.4c-2.2-0.9-4.1-2.2-5.8-3.7c-1.7-1.7-2.9-3.5-3.8-5.6c-0.9-2.2-1.3-4.3-1.3-6.7c0-2.4,0.4-4.6,1.3-6.8
		c0.9-2.1,2.2-3.9,3.8-5.6c1.7-1.6,3.6-2.9,5.8-3.7c2.2-0.9,4.4-1.3,6.8-1.3c2.4,0,4.6,0.4,6.8,1.3c2.2,0.9,4.1,2.2,5.8,3.7
		c1.7,1.7,3,3.5,3.8,5.6C102,345.6,102.4,347.7,102.4,350.2 M106.8,366.7v-34.5l24.3,26.5v-25.2h3.7V368l-24.3-26.2v24.9H106.8z
		 M156.9,363.8c1.9,0,3.5-0.4,5.2-1.1c1.7-0.7,3.1-1.7,4.4-2.9c1.3-1.3,2.3-2.8,2.9-4.4c0.7-1.7,1.1-3.4,1.1-5.2
		c0-1.9-0.4-3.6-1.1-5.3c-0.7-1.7-1.7-3.1-2.9-4.4c-1.3-1.4-2.7-2.4-4.4-2.9c-1.6-0.8-3.3-1.1-5.2-1.1c-1.8,0-3.5,0.3-5.2,1.1
		c-1.7,0.6-3.1,1.6-4.3,2.9c-1.4,1.3-2.4,2.8-3,4.4c-0.7,1.7-1,3.4-1,5.3c0,1.8,0.3,3.5,1,5.2c0.7,1.6,1.7,3.1,3,4.4
		c1.3,1.3,2.8,2.3,4.4,2.9C153.4,363.4,155.1,363.8,156.9,363.8 M174.7,350.2c0,2.4-0.5,4.5-1.4,6.7c-0.9,2.1-2.2,3.9-3.8,5.6
		c-1.7,1.6-3.5,2.9-5.8,3.7c-2.2,0.9-4.4,1.4-6.8,1.4c-2.3,0-4.6-0.5-6.7-1.4c-2.3-0.9-4.1-2.2-5.8-3.7c-1.8-1.7-3-3.5-3.8-5.6
		c-1-2.2-1.4-4.3-1.4-6.7c0-2.4,0.4-4.6,1.4-6.8c0.8-2.1,2.1-3.9,3.8-5.6c1.7-1.6,3.5-2.9,5.8-3.7c2.1-0.9,4.4-1.3,6.7-1.3
		c2.4,0,4.6,0.4,6.9,1.3c2.2,0.9,4,2.2,5.7,3.7c1.7,1.7,3,3.5,3.8,5.6C174.2,345.6,174.7,347.7,174.7,350.2 M150.2,330.3l4.5-7.9
		h4.4l4.4,7.9h-2.7l-3.9-5.2l-3.9,5.2H150.2z M194.5,368l-10.3-23.9l-4.1,22.6h-3.8l6.7-34.5l11.6,27.4l11.6-27.4l6.7,34.5H209
		l-4.2-22.6L194.5,368z M215.9,333.5h3.9v33.2h-3.9V333.5z M252.8,341.5c-1.6-1.7-3.2-3-5-3.8c-1.9-0.8-3.8-1.2-6-1.2
		c-1.8,0-3.4,0.3-5.1,1.1c-1.7,0.7-3.1,1.7-4.3,2.9c-1.3,1.3-2.3,2.8-2.9,4.3c-0.7,1.7-1,3.4-1,5.4c0,1.6,0.2,3,0.6,4.2
		c0.4,1.4,0.9,2.6,1.7,3.6c1.4,1.9,2.9,3.3,4.9,4.3c2,1,4,1.6,6.3,1.6c2.1,0,4-0.5,5.9-1.4c1.8-0.8,3.4-2.2,4.9-3.8v5.2
		c-1.7,1.2-3.4,2.1-5.3,2.7c-1.9,0.6-3.8,1-5.9,1c-1.7,0-3.4-0.3-5.1-0.8c-1.6-0.6-3.1-1.3-4.6-2.3c-2.5-1.8-4.2-3.7-5.5-6.2
		c-1.3-2.5-2-5.2-2-8.1c0-2.6,0.4-4.9,1.3-7c0.9-2.2,2.2-4,3.9-5.7c1.7-1.7,3.5-2.8,5.6-3.6c2.1-0.9,4.3-1.3,6.8-1.3
		c1.9,0,3.7,0.3,5.5,0.9c1.8,0.6,3.5,1.5,5.3,2.8V341.5z M268,341l-5.3,12.2h10.6L268,341z M268,332.2l15,34.5h-4.2l-4.3-10.2h-13
		l-4.2,10.2H253L268,332.2z"/>
	<path class="st0" d="M299.3,366.7v-33.2h17.5v3.6h-13.5v9.5h13.5v3.6h-13.5v16.4H299.3z M321.8,366.7v-33.2h17.5v3.6h-13.5v9.5
		h13.5v3.6h-13.5V363h13.5v3.7H321.8z M348.9,363h2.5c4.1,0,7-0.2,8.4-0.6c1.6-0.3,2.9-0.9,3.9-1.8c1.4-1.2,2.4-2.5,3.1-4.4
		c0.7-1.8,1.1-3.8,1.1-6.1c0-2.4-0.4-4.4-1.1-6.1c-0.7-1.8-1.8-3.2-3.1-4.4c-1-0.9-2.4-1.5-3.9-1.9c-1.7-0.4-4.4-0.5-8.4-0.5h-2.5
		V363z M344.9,366.7v-33.2h6.4c4.7,0,8.1,0.3,9.9,0.8c2,0.5,3.6,1.3,5.1,2.4c1.9,1.5,3.3,3.3,4.3,5.6c1,2.3,1.4,4.9,1.4,7.9
		c0,3-0.4,5.6-1.4,7.9c-1,2.3-2.5,4.1-4.3,5.6c-1.5,1.1-3.1,1.9-5,2.4c-1.9,0.5-4.7,0.8-8.5,0.8h-1.5H344.9z M377.5,366.7v-33.2H395
		v3.6h-13.6v9.5H395v3.6h-13.6V363H395v3.7H377.5z M400.6,366.7v-33.2h7.9c2.2,0,3.8,0.2,4.8,0.4c1.1,0.3,2,0.7,2.7,1.3
		c1,0.8,1.8,1.9,2.3,3.1c0.6,1.3,0.8,2.7,0.8,4.2c0,2.7-0.7,4.8-2.3,6.2c-1.5,1.5-3.7,2.2-6.7,2.2h-0.7l12.7,15.8h-5L405,350.9h-0.6
		v15.8H400.6z M404.4,336.8v11.1h3c3,0,5.1-0.4,6.2-1.2c1.1-0.8,1.6-2.2,1.6-4.1c0-2.2-0.6-3.6-1.6-4.5c-1.1-0.8-3.1-1.3-6.2-1.3
		H404.4z M434.9,341l-5.3,12.2h10.6L434.9,341z M434.9,332.2l15,34.5h-4.2l-4.3-10.2h-13l-4.3,10.2h-4.2L434.9,332.2z M452.3,366.7
		v-33.2h3.9v29.4h12.5v3.8H452.3z"/>
	<polygon class="st0" points="315.2,314 259.5,314 227.5,253.1 283.2,253.1 	"/>
	<polygon class="st1" points="345.3,186.1 289.6,186.1 232.1,247.1 287.8,247.1 	"/>
	<polygon class="st0" points="199.7,186.1 255.4,186.1 287.4,247.1 231.7,247.1 	"/>
	<polygon class="st1" points="169.6,314 225.4,314 282.8,253.1 227.1,253.1 	"/>
</g>
</svg>
